# xmcd
#
# Track frame offsets:
#	150
#	15515
#	30332
#	44819
#	66669
#	83682
#	99688
#	114948
#	129728
#	144204
#	166006
#	182950
#
# Disc length: 2652 seconds
#
# Revision: 2
# Processed by: cddbd v1.5.1PL2 Copyright (c) Steve Scherf et al.
# Submitted via: audiograbber 1.83.01
#
DISCID=9c0a5a0c
DTITLE=MAVERICKS - ChartBuster 20242
DYEAR=1900
DGENRE=Karaoke
TTITLE0=MAVERICKS - There goes my heart  Vocal
TTITLE1=MAVERICKS - Oh what a thrill  Vocal
TTITLE2=MAVERICKS - Here comes my baby  Vocal
TTITLE3=MAVERICKS - I should have been true  Vocal
TTITLE4=MAVERICKS - Pretend  Vocal
TTITLE5=MAVERICKS - Things you said to me  Vocal
TTITLE6=MAVERICKS - There goes my heart
TTITLE7=MAVERICKS - Oh what a thrill
TTITLE8=MAVERICKS - Here comes my baby
TTITLE9=MAVERICKS - I should have been true
TTITLE10=MAVERICKS - Pretend
TTITLE11=MAVERICKS - Things you said to me
EXTD=
EXTT0=
EXTT1=
EXTT2=
EXTT3=
EXTT4=
EXTT5=
EXTT6=
EXTT7=
EXTT8=
EXTT9=
EXTT10=
EXTT11=
PLAYORDER=
